HIERARCHY
ROOT Hips
{
	OFFSET 2.433734 86.173073 3.643662
	CHANNELS 6 Xposition Yposition Zposition Zrotation Yrotation Xrotation 
	JOINT Spine
	{
		OFFSET -0.000000 8.814246 -2.080107
		CHANNELS 3 Zrotation Yrotation Xrotation
		JOINT Spine1
		{
			OFFSET 0.000000 8.844141 0.000000
			CHANNELS 3 Zrotation Yrotation Xrotation
			JOINT Spine2
			{
				OFFSET 0.000000 11.682268 -0.000000
				CHANNELS 3 Zrotation Yrotation Xrotation
				JOINT Spine3
				{
					OFFSET -0.000000 11.746700 -0.000000
					CHANNELS 3 Zrotation Yrotation Xrotation
					JOINT Neck
					{
						OFFSET -0.000000 17.658264 0.000000
						CHANNELS 3 Zrotation Yrotation Xrotation
						JOINT Neck1
						{
							OFFSET -0.000000 5.101515 -0.000000
							CHANNELS 3 Zrotation Yrotation Xrotation
							JOINT Head
							{
								OFFSET 0.000000 5.101515 -0.000000
								CHANNELS 3 Zrotation Yrotation Xrotation
								JOINT HeadEnd
								{
									OFFSET -0.000000 11.655085 -0.000000
									CHANNELS 3 Zrotation Yrotation Xrotation
									End Site
									{
										OFFSET 0.000000 0.000000 0.000000
									}
								}
							}
						}
					}
					JOINT RightShoulder
					{
						OFFSET -2.625389 11.175210 -0.000000
						CHANNELS 3 Zrotation Yrotation Xrotation
						JOINT RightArm
						{
							OFFSET -0.000000 10.434715 0.000000
							CHANNELS 3 Zrotation Yrotation Xrotation
							JOINT RightForeArm
							{
								OFFSET 0.000000 29.628420 -0.000000
								CHANNELS 3 Zrotation Yrotation Xrotation
								JOINT RightHand
								{
									OFFSET 0.000000 22.857611 0.000000
									CHANNELS 3 Zrotation Yrotation Xrotation
									JOINT RightHandThumb1
									{
										OFFSET -2.867323 3.959563 2.944291
										CHANNELS 3 Zrotation Yrotation Xrotation
										JOINT RightHandThumb2
										{
											OFFSET 0.000000 3.350399 0.000000
											CHANNELS 3 Zrotation Yrotation Xrotation
											JOINT RightHandThumb3
											{
												OFFSET -0.000000 3.756509 -0.000000
												CHANNELS 3 Zrotation Yrotation Xrotation
												JOINT RightHandThumb4
												{
													OFFSET -0.000000 3.147345 -0.000000
													CHANNELS 3 Zrotation Yrotation Xrotation
													End Site
													{
														OFFSET 0.000000 0.000000 0.000000
													}
												}
											}
										}
									}
									JOINT RightHandIndex1
									{
										OFFSET -0.086752 10.030893 2.345280
										CHANNELS 3 Zrotation Yrotation Xrotation
										JOINT RightHandIndex2
										{
											OFFSET -0.000000 4.061090 0.000000
											CHANNELS 3 Zrotation Yrotation Xrotation
											JOINT RightHandIndex3
											{
												OFFSET 0.000000 3.248873 0.000000
												CHANNELS 3 Zrotation Yrotation Xrotation
												JOINT RightHandIndex4
												{
													OFFSET 0.000000 2.639709 0.000000
													CHANNELS 3 Zrotation Yrotation Xrotation
													End Site
													{
														OFFSET 0.000000 0.000000 0.000000
													}
												}
											}
										}
									}
									JOINT RightHandMiddle1
									{
										OFFSET 0.104102 9.502952 0.006768
										CHANNELS 3 Zrotation Yrotation Xrotation
										JOINT RightHandMiddle2
										{
											OFFSET -0.000000 4.568727 -0.000000
											CHANNELS 3 Zrotation Yrotation Xrotation
											JOINT RightHandMiddle3
											{
												OFFSET -0.000000 3.654981 0.000000
												CHANNELS 3 Zrotation Yrotation Xrotation
												JOINT RightHandMiddle4
												{
													OFFSET 0.000000 2.741236 0.000000
													CHANNELS 3 Zrotation Yrotation Xrotation
													End Site
													{
														OFFSET 0.000000 0.000000 0.000000
													}
												}
											}
										}
									}
									JOINT RightHandRing1
									{
										OFFSET 0.086752 8.921708 -2.267442
										CHANNELS 3 Zrotation Yrotation Xrotation
										JOINT RightHandRing2
										{
											OFFSET -0.000000 4.061090 -0.000000
											CHANNELS 3 Zrotation Yrotation Xrotation
											JOINT RightHandRing3
											{
												OFFSET 0.000000 3.654981 0.000000
												CHANNELS 3 Zrotation Yrotation Xrotation
												JOINT RightHandRing4
												{
													OFFSET -0.000000 2.741236 -0.000000
													CHANNELS 3 Zrotation Yrotation Xrotation
													End Site
													{
														OFFSET 0.000000 0.000000 0.000000
													}
												}
											}
										}
									}
									JOINT RightHandPinky1
									{
										OFFSET -0.173504 7.976997 -4.467199
										CHANNELS 3 Zrotation Yrotation Xrotation
										JOINT RightHandPinky2
										{
											OFFSET 0.000000 3.350399 0.000000
											CHANNELS 3 Zrotation Yrotation Xrotation
											JOINT RightHandPinky3
											{
												OFFSET 0.000000 2.842763 0.000000
												CHANNELS 3 Zrotation Yrotation Xrotation
												JOINT RightHandPinky4
												{
													OFFSET 0.000000 2.639709 0.000000
													CHANNELS 3 Zrotation Yrotation Xrotation
													End Site
													{
														OFFSET 0.000000 0.000000 0.000000
													}
												}
											}
										}
									}
									JOINT RightForeArmEnd
									{
										OFFSET 0.000000 0.000000 0.000000
										CHANNELS 3 Zrotation Yrotation Xrotation
										End Site
										{
											OFFSET 0.000000 0.000000 0.000000
										}
									}
								}
								JOINT RightArmEnd
								{
									OFFSET 0.000000 0.000000 0.000000
									CHANNELS 3 Zrotation Yrotation Xrotation
									End Site
									{
										OFFSET 0.000000 0.000000 0.000000
									}
								}
							}
						}
					}
					JOINT LeftShoulder
					{
						OFFSET 2.625389 11.175210 -0.000000
						CHANNELS 3 Zrotation Yrotation Xrotation
						JOINT LeftArm
						{
							OFFSET 0.000000 10.813635 0.000000
							CHANNELS 3 Zrotation Yrotation Xrotation
							JOINT LeftForeArm
							{
								OFFSET 0.000000 28.724781 0.000000
								CHANNELS 3 Zrotation Yrotation Xrotation
								JOINT LeftHand
								{
									OFFSET 0.644384 25.716167 -0.328871
									CHANNELS 3 Zrotation Yrotation Xrotation
									JOINT LeftHandThumb1
									{
										OFFSET 2.867323 3.959563 2.944291
										CHANNELS 3 Zrotation Yrotation Xrotation
										JOINT LeftHandThumb2
										{
											OFFSET 0.000000 3.350399 0.000000
											CHANNELS 3 Zrotation Yrotation Xrotation
											JOINT LeftHandThumb3
											{
												OFFSET -0.000000 3.756509 -0.000000
												CHANNELS 3 Zrotation Yrotation Xrotation
												JOINT LeftHandThumb4
												{
													OFFSET -0.000000 3.100000 0.000000
													CHANNELS 3 Zrotation Yrotation Xrotation
													End Site
													{
														OFFSET 0.000000 0.000000 0.000000
													}
												}
											}
										}
									}
									JOINT LeftHandIndex1
									{
										OFFSET 0.086752 10.030893 2.345280
										CHANNELS 3 Zrotation Yrotation Xrotation
										JOINT LeftHandIndex2
										{
											OFFSET -0.000000 4.061090 0.000000
											CHANNELS 3 Zrotation Yrotation Xrotation
											JOINT LeftHandIndex3
											{
												OFFSET 0.000000 3.248873 0.000000
												CHANNELS 3 Zrotation Yrotation Xrotation
												JOINT LeftHandIndex4
												{
													OFFSET -0.000000 2.639709 0.000000
													CHANNELS 3 Zrotation Yrotation Xrotation
													End Site
													{
														OFFSET 0.000000 0.000000 0.000000
													}
												}
											}
										}
									}
									JOINT LeftHandMiddle1
									{
										OFFSET -0.104102 9.502952 0.006768
										CHANNELS 3 Zrotation Yrotation Xrotation
										JOINT LeftHandMiddle2
										{
											OFFSET -0.000000 4.568727 0.000000
											CHANNELS 3 Zrotation Yrotation Xrotation
											JOINT LeftHandMiddle3
											{
												OFFSET 0.000000 3.654981 -0.000000
												CHANNELS 3 Zrotation Yrotation Xrotation
												JOINT LeftHandMiddle4
												{
													OFFSET -0.000000 2.741236 0.000000
													CHANNELS 3 Zrotation Yrotation Xrotation
													End Site
													{
														OFFSET 0.000000 0.000000 0.000000
													}
												}
											}
										}
									}
									JOINT LeftHandRing1
									{
										OFFSET -0.086752 8.921708 -2.267442
										CHANNELS 3 Zrotation Yrotation Xrotation
										JOINT LeftHandRing2
										{
											OFFSET -0.000000 4.061090 0.000000
											CHANNELS 3 Zrotation Yrotation Xrotation
											JOINT LeftHandRing3
											{
												OFFSET 0.000000 3.654981 0.000000
												CHANNELS 3 Zrotation Yrotation Xrotation
												JOINT LeftHandRing4
												{
													OFFSET 0.000000 2.741236 -0.000000
													CHANNELS 3 Zrotation Yrotation Xrotation
													End Site
													{
														OFFSET 0.000000 0.000000 0.000000
													}
												}
											}
										}
									}
									JOINT LeftHandPinky1
									{
										OFFSET 0.173504 7.976997 -4.467199
										CHANNELS 3 Zrotation Yrotation Xrotation
										JOINT LeftHandPinky2
										{
											OFFSET 0.000000 3.350399 -0.000000
											CHANNELS 3 Zrotation Yrotation Xrotation
											JOINT LeftHandPinky3
											{
												OFFSET -0.000000 2.842763 0.000000
												CHANNELS 3 Zrotation Yrotation Xrotation
												JOINT LeftHandPinky4
												{
													OFFSET -0.000000 2.639709 0.000000
													CHANNELS 3 Zrotation Yrotation Xrotation
													End Site
													{
														OFFSET 0.000000 0.000000 0.000000
													}
												}
											}
										}
									}
									JOINT LeftForeArmEnd
									{
										OFFSET 0.000000 0.000000 0.000000
										CHANNELS 3 Zrotation Yrotation Xrotation
										End Site
										{
											OFFSET 0.000000 0.000000 0.000000
										}
									}
								}
								JOINT LeftArmEnd
								{
									OFFSET 0.000000 0.000000 0.000000
									CHANNELS 3 Zrotation Yrotation Xrotation
									End Site
									{
										OFFSET 0.000000 0.000000 0.000000
									}
								}
							}
						}
					}
				}
			}
		}
	}
	JOINT RightUpLeg
	{
		OFFSET -11.289943 0.000000 0.000000
		CHANNELS 3 Zrotation Yrotation Xrotation
		JOINT RightLeg
		{
			OFFSET -0.000000 -38.200325 0.000000
			CHANNELS 3 Zrotation Yrotation Xrotation
			JOINT RightFoot
			{
				OFFSET -0.000000 -39.900856 -0.000000
				CHANNELS 3 Zrotation Yrotation Xrotation
				JOINT RightToeBase
				{
					OFFSET -0.000000 -0.000000 15.261641
					CHANNELS 3 Zrotation Yrotation Xrotation
					JOINT RightToeBaseEnd
					{
						OFFSET -0.000000 0.000000 7.370709
						CHANNELS 3 Zrotation Yrotation Xrotation
						End Site
						{
							OFFSET 0.000000 0.000000 0.000000
						}
					}
				}
				JOINT RightLegEnd
				{
					OFFSET 0.000000 0.000000 0.000000
					CHANNELS 3 Zrotation Yrotation Xrotation
					End Site
					{
						OFFSET 0.000000 0.000000 0.000000
					}
				}
			}
			JOINT RightUpLegEnd
			{
				OFFSET 0.000000 0.000000 0.000000
				CHANNELS 3 Zrotation Yrotation Xrotation
				End Site
				{
					OFFSET 0.000000 0.000000 0.000000
				}
			}
		}
	}
	JOINT LeftUpLeg
	{
		OFFSET 11.315661 0.000000 -0.000000
		CHANNELS 3 Zrotation Yrotation Xrotation
		JOINT LeftLeg
		{
			OFFSET -0.000000 -38.200325 -0.000000
			CHANNELS 3 Zrotation Yrotation Xrotation
			JOINT LeftFoot
			{
				OFFSET 0.000000 -39.900856 -0.000000
				CHANNELS 3 Zrotation Yrotation Xrotation
				JOINT LeftToeBase
				{
					OFFSET 0.000000 -0.000000 15.261641
					CHANNELS 3 Zrotation Yrotation Xrotation
					JOINT LeftToeBaseEnd
					{
						OFFSET 0.000000 -0.000000 7.539996
						CHANNELS 3 Zrotation Yrotation Xrotation
						End Site
						{
							OFFSET 0.000000 0.000000 0.000000
						}
					}
				}
				JOINT LeftLegEnd
				{
					OFFSET 0.000000 0.000000 0.000000
					CHANNELS 3 Zrotation Yrotation Xrotation
					End Site
					{
						OFFSET 0.000000 0.000000 0.000000
					}
				}
			}
			JOINT LeftUpLegEnd
			{
				OFFSET 0.000000 0.000000 0.000000
				CHANNELS 3 Zrotation Yrotation Xrotation
				End Site
				{
					OFFSET 0.000000 0.000000 0.000000
				}
			}
		}
	}
}
MOTION
Frames: 4
Frame Time: 0.016667
2.518274 86.365273 11.765400 0.738282 14.645679 -14.614642 -0.892237 0.282612 8.205159 5.188452 -1.165179 -1.549999 -4.504993 2.552487 19.960192 0.381071 -0.060949 -0.135011 6.718209 2.702250 12.978767 -3.088421 1.702109 -7.260211 0.204564 3.790056 -25.584829 0.000000 0.000000 0.000000 98.291809 -0.860504 5.980776 58.290977 -37.251041 6.796029 1.327185 17.352522 32.646511 5.895803 18.210127 -11.087412 10.900652 -1.842230 39.796505 0.000020 0.000045 -26.547903 0.000021 0.000064 -18.468805 0.000014 0.000006 -0.000043 17.001949 0.433713 -9.204343 11.663642 0.015229 -0.250771 11.599032 0.063993 -0.253670 -0.000001 0.000012 -0.000027 17.572731 0.157479 -11.065959 12.116969 -0.007029 -0.115698 11.988371 0.023798 -0.089229 -0.000005 0.000134 -0.000009 19.408396 -0.232499 -12.043359 13.708310 0.026143 0.177975 13.487074 -0.032693 0.137998 -0.000006 0.001008 0.000023 20.158722 -0.616939 -14.429255 13.700129 0.022031 0.551660 13.820717 -0.148256 0.419833 0.000726 -0.000009 -0.000025 0.000000 0.000000 0.000000 0.000000 0.000000 0.000000 -94.721954 0.621967 5.204264 -53.122669 36.938950 4.222271 -1.672140 -8.247603 49.335350 -3.276757 -15.487409 -15.046322 -8.966373 1.647876 40.637840 0.000003 0.000037 -21.933655 -0.000048 -0.000036 -15.240658 0.000374 0.000007 0.002178 -14.197156 0.448091 -13.744168 -9.900775 0.013098 0.436392 -9.989172 0.066261 0.419119 0.000005 0.001029 -0.000010 -15.103586 0.188261 -15.246734 -10.520043 -0.009918 0.165043 -10.379837 0.020640 0.131643 -0.002385 -0.000077 -0.000053 -16.870419 -0.175478 -14.941648 -11.751416 0.031786 -0.209060 -11.759892 -0.031090 -0.169211 0.000018 0.000012 0.000002 -17.485409 -0.540411 -14.965606 -12.276617 0.066819 -0.523939 -12.170246 -0.070393 -0.479987 -0.000326 -0.000003 -0.000040 0.000000 0.000000 0.000000 0.000000 0.000000 0.000000 -8.633301 -4.754760 18.516171 -0.340802 -1.149919 15.179367 3.339025 -13.987988 12.558591 -0.730537 -0.899953 -28.035883 0.000000 0.000000 0.000000 0.000000 0.000000 0.000000 0.000000 0.000000 0.000000 4.301231 2.469721 15.036919 0.190489 0.896951 13.534406 1.437205 1.728823 13.518173 0.116328 0.160809 -27.539923 0.000000 0.000000 0.000000 0.000000 0.000000 0.000000 0.000000 0.000000 0.000000 
2.623721 86.358078 11.711063 0.782416 14.752116 -14.561638 -0.914694 0.291470 8.179418 5.229527 -1.166486 -1.533771 -4.590965 2.649853 19.956797 0.393850 -0.038031 -0.130556 6.766472 2.685643 12.968950 -3.071854 1.694741 -7.262628 0.217581 3.790800 -25.599535 0.000000 0.000000 0.000000 98.306023 -0.859371 6.005261 58.282063 -37.145527 6.802350 1.337578 17.372494 32.562450 5.896028 18.391327 -11.048002 10.908844 -1.841448 39.793907 0.000020 0.000045 -26.566418 0.000021 0.000064 -18.485054 0.000014 0.000005 -0.000043 17.021000 0.433923 -9.216860 11.695673 0.016847 -0.254518 11.631231 0.065673 -0.256113 -0.000001 0.000012 -0.000027 17.593830 0.157289 -11.062030 12.139043 -0.006445 -0.116338 12.011649 0.024282 -0.089663 -0.000005 0.000135 -0.000009 19.420990 -0.232616 -12.014313 13.712994 0.024709 0.178527 13.489063 -0.033366 0.138256 -0.000006 0.001001 0.000024 20.160095 -0.616553 -14.389683 13.681732 0.019513 0.551912 13.802026 -0.150021 0.418808 0.000729 -0.000009 -0.000025 0.000000 0.000000 0.000000 0.000000 0.000000 0.000000 -94.730400 0.625071 5.202848 -53.129879 36.742435 4.170382 -1.693818 -8.275787 49.332020 -3.219997 -15.619486 -15.070660 -8.942693 1.646170 40.649319 0.000003 0.000036 -21.863058 -0.000048 -0.000036 -15.190970 0.000344 0.000008 0.002219 -14.055440 0.448089 -13.726237 -9.821947 0.011824 0.425408 -9.906824 0.064921 0.409815 0.000005 0.001035 -0.000010 -14.970496 0.188020 -15.239536 -10.438980 -0.010331 0.161329 -10.297791 0.020129 0.128247 -0.002333 -0.000077 -0.000051 -16.752708 -0.175160 -14.935958 -11.667625 0.032260 -0.204663 -11.677289 -0.030596 -0.166074 -0.000011 0.000012 0.000002 -17.391914 -0.539213 -14.978997 -12.201589 0.067859 -0.513083 -12.091651 -0.069371 -0.471058 -0.000329 -0.000003 -0.000040 0.000000 0.000000 0.000000 0.000000 0.000000 0.000000 -8.781531 -4.788322 18.442120 -0.343426 -1.153637 15.257692 3.456728 -14.005353 12.575403 -0.733915 -0.906349 -28.050373 0.000000 0.000000 0.000000 0.000000 0.000000 0.000000 0.000000 0.000000 0.000000 4.140047 2.445067 14.944429 0.188310 0.889231 13.539847 1.538139 1.747745 13.548841 0.107902 0.158733 -27.557264 0.000000 0.000000 0.000000 0.000000 0.000000 0.000000 0.000000 0.000000 0.000000 
2.734914 86.350304 11.655105 0.832471 14.865252 -14.502196 -0.939376 0.300795 8.152251 5.271585 -1.168077 -1.519948 -4.683600 2.751988 19.954153 0.407555 -0.014755 -0.127591 6.818191 2.668431 12.959337 -3.053433 1.688331 -7.264166 0.230797 3.790617 -25.612312 0.000000 0.000000 0.000000 98.321487 -0.858701 6.029234 58.269855 -37.038170 6.805719 1.347936 17.392859 32.490875 5.890073 18.552362 -11.007112 10.917467 -1.840817 39.790821 0.000020 0.000045 -26.586357 0.000022 0.000063 -18.502716 0.000013 0.000005 -0.000043 17.042351 0.433952 -9.232922 11.728409 0.018566 -0.258800 11.664460 0.067432 -0.258996 -0.000001 0.000012 -0.000027 17.618549 0.157067 -11.061574 12.162652 -0.005818 -0.117198 12.036314 0.024808 -0.090265 -0.000005 0.000137 -0.000009 19.438021 -0.232651 -11.987995 13.719543 0.023244 0.179281 13.493052 -0.034059 0.138650 -0.000006 0.000988 0.000024 20.164793 -0.615896 -14.351625 13.665327 0.017038 0.552527 13.785527 -0.151767 0.418059 0.000732 -0.000009 -0.000025 0.000000 0.000000 0.000000 0.000000 0.000000 0.000000 -94.741608 0.628028 5.200514 -53.145832 36.538387 4.109243 -1.716124 -8.307441 49.324421 -3.157232 -15.741603 -15.096010 -8.916329 1.644189 40.662033 0.000003 0.000036 -21.785917 -0.000047 -0.000036 -15.136912 0.000311 0.000008 0.002257 -13.893871 0.447987 -13.702270 -9.737263 0.010549 0.414340 -9.818405 0.063584 0.400450 0.000005 0.001041 -0.000010 -14.821370 0.187782 -15.227923 -10.352300 -0.010729 0.157618 -10.210323 0.019636 0.124830 -0.002282 -0.000077 -0.000049 -16.621771 -0.174793 -14.927002 -11.578292 0.032726 -0.200173 -11.588937 -0.030105 -0.162850 -0.000040 0.000011 0.000002 -17.286648 -0.537725 -14.990487 -12.121272 0.068984 -0.501744 -12.007798 -0.068281 -0.461684 -0.000330 -0.000003 -0.000039 0.000000 0.000000 0.000000 0.000000 0.000000 0.000000 -8.938852 -4.823055 18.365494 -0.346052 -1.157245 15.338890 3.579926 -14.025151 12.587548 -0.737627 -0.913008 -28.063698 0.000000 0.000000 0.000000 0.000000 0.000000 0.000000 0.000000 0.000000 0.000000 3.969212 2.418560 14.846621 0.186061 0.881292 13.542487 1.642474 1.763993 13.582195 0.099176 0.156329 -27.574892 0.000000 0.000000 0.000000 0.000000 0.000000 0.000000 0.000000 0.000000 0.000000 
2.851273 86.342155 11.597754 0.887415 14.986375 -14.436827 -0.966246 0.310356 8.124229 5.314316 -1.170074 -1.508490 -4.781251 2.857515 19.952116 0.421813 0.008660 -0.126725 6.870316 2.651201 12.951526 -3.033828 1.682378 -7.264387 0.244109 3.789497 -25.623857 0.000000 0.000000 0.000000 98.338425 -0.858290 6.052616 58.255199 -36.929111 6.810479 1.357586 17.413906 32.429832 5.876127 18.691195 -10.960523 10.925412 -1.840196 39.787827 0.000020 0.000045 -26.604902 0.000022 0.000063 -18.519728 0.000013 0.000005 -0.000042 17.061138 0.433843 -9.249517 11.760135 0.020423 -0.263737 11.696860 0.069297 -0.262463 -0.000001 0.000012 -0.000026 17.642612 0.156815 -11.062275 12.185965 -0.005134 -0.118317 12.060558 0.025379 -0.091075 -0.000005 0.000138 -0.000009 19.456161 -0.232623 -11.963616 13.726583 0.021725 0.180300 13.497652 -0.034781 0.139238 -0.000006 0.000971 0.000024 20.169653 -0.615006 -14.315193 13.649861 0.014554 0.553664 13.770186 -0.153509 0.417693 0.000735 -0.000009 -0.000025 0.000000 0.000000 0.000000 0.000000 0.000000 0.000000 -94.754066 0.630041 5.197155 -53.169327 36.327148 4.046352 -1.738743 -8.344048 49.309879 -3.091512 -15.846728 -15.113978 -8.886603 1.641813 40.676315 0.000003 0.000035 -21.700813 -0.000047 -0.000037 -15.077548 0.000279 0.000008 0.002290 -13.707826 0.447793 -13.670140 -9.643363 0.009303 0.403172 -9.720892 0.062271 0.391008 0.000005 0.001046 -0.000010 -14.652824 0.187549 -15.210332 -10.256901 -0.011103 0.153897 -10.114522 0.019162 0.121376 -0.002231 -0.000077 -0.000048 -16.475145 -0.174400 -14.915169 -11.480858 0.033168 -0.195519 -11.492418 -0.029618 -0.159490 -0.000071 0.000011 0.000002 -17.167709 -0.535977 -15.001582 -12.033934 0.070186 -0.489673 -11.917048 -0.067129 -0.451681 -0.000330 -0.000004 -0.000039 0.000000 0.000000 0.000000 0.000000 0.000000 0.000000 -9.103230 -4.858610 18.287056 -0.348707 -1.160899 15.422787 3.708122 -14.047973 12.594869 -0.741629 -0.919616 -28.076515 0.000000 0.000000 0.000000 0.000000 0.000000 0.000000 0.000000 0.000000 0.000000 3.790293 2.389284 14.742413 0.183758 0.873227 13.544014 1.749866 1.775567 13.617598 0.090165 0.153703 -27.592182 0.000000 0.000000 0.000000 0.000000 0.000000 0.000000 0.000000 0.000000 0.000000 
